<?xml version="1.0" encoding="UTF-8" standalone="no"?>
<!DOCTYPE svg PUBLIC "-//W3C//DTD SVG 1.1//EN" "http://www.w3.org/Graphics/SVG/1.1/DTD/svg11.dtd">
<svg version="1.1" xmlns="http://www.w3.org/2000/svg" xmlns:xlink="http://www.w3.org/1999/xlink" preserveAspectRatio="xMidYMid meet" viewBox="0 0 545 200" width="545" height="200"><defs><path d="M310.32 46.03L400.96 154.05L529.19 61.16" id="amqC11ZCP"></path><path d="M121.4 37.5L212.04 145.52L340.27 52.62" id="a10JADTijP"></path><path d="M17.03 137.2L150.27 44.26" id="c1t0xKzZwK"></path><path d="M213.42 66.98C213.98 56.4 222.68 48.25 232.85 48.78C243.02 49.31 250.82 58.33 250.27 68.91C249.71 79.49 241.01 87.65 230.84 87.12C220.67 86.58 212.87 77.56 213.42 66.98Z" id="bqVlmGTF1"></path><path d="M289.25 144.34C289.8 133.76 298.5 125.61 308.67 126.14C318.84 126.67 326.64 135.69 326.09 146.27C325.53 156.85 316.83 165.01 306.66 164.48C296.5 163.94 288.69 154.92 289.25 144.34Z" id="dyagBiCSy"></path><path d="M107.08 133.8C107.64 123.22 116.34 115.06 126.51 115.6C136.67 116.13 144.48 125.15 143.92 135.73C143.37 146.31 134.67 154.46 124.5 153.93C114.33 153.4 106.53 144.38 107.08 133.8Z" id="bD9eOGyRF"></path><path d="M391.12 77.04C391.67 66.47 400.38 58.31 410.54 58.84C420.71 59.38 428.51 68.4 427.96 78.98C427.41 89.55 418.7 97.71 408.54 97.18C398.37 96.64 390.56 87.62 391.12 77.04Z" id="amQE1puCi"></path></defs><g><g><g><g><g><g><use xlink:href="#amqC11ZCP" opacity="1" fill-opacity="0" stroke="#000000" stroke-width="45" stroke-opacity="1"></use></g></g><g><g><use xlink:href="#a10JADTijP" opacity="1" fill-opacity="0" stroke="#000000" stroke-width="45" stroke-opacity="1"></use></g></g><g><g><use xlink:href="#c1t0xKzZwK" opacity="1" fill-opacity="0" stroke="#000000" stroke-width="45" stroke-opacity="1"></use></g></g></g><g><use xlink:href="#bqVlmGTF1" opacity="1" fill="#010002" fill-opacity="1"></use></g><g><use xlink:href="#dyagBiCSy" opacity="1" fill="#010002" fill-opacity="1"></use></g><g><use xlink:href="#bD9eOGyRF" opacity="1" fill="#010002" fill-opacity="1"></use></g><g><use xlink:href="#amQE1puCi" opacity="1" fill="#010002" fill-opacity="1"></use></g></g></g></g></svg>