<?xml version="1.0" encoding="UTF-8" standalone="no"?>
<!DOCTYPE svg PUBLIC "-//W3C//DTD SVG 1.1//EN" "http://www.w3.org/Graphics/SVG/1.1/DTD/svg11.dtd">
<svg version="1.1" xmlns="http://www.w3.org/2000/svg" xmlns:xlink="http://www.w3.org/1999/xlink" preserveAspectRatio="xMidYMid meet" viewBox="0 0 210 560" width="210" height="560"><defs><path d="M49.88 247.98L158.22 157.08L65.05 28.47" id="j2rJKSawz7"></path><path d="M41.33 437.46L149.66 346.55L56.5 217.94" id="aGnJWlJks"></path><path d="M141.32 542.13L48.11 408.5" id="b2HhQOtcUR"></path><path d="M70.9 345.16C60.29 344.61 52.11 335.88 52.64 325.68C53.18 315.48 62.22 307.66 72.83 308.21C83.44 308.77 91.62 317.5 91.09 327.7C90.55 337.89 81.51 345.72 70.9 345.16Z" id="d4vkqlPIXG"></path><path d="M148.48 269.12C137.87 268.56 129.69 259.83 130.23 249.64C130.76 239.44 139.81 231.61 150.42 232.17C161.03 232.73 169.21 241.46 168.67 251.65C168.14 261.85 159.09 269.68 148.48 269.12Z" id="duo1FrL"></path><path d="M137.91 451.82C127.3 451.26 119.12 442.53 119.65 432.33C120.19 422.14 129.23 414.31 139.84 414.87C150.45 415.42 158.63 424.15 158.1 434.35C157.56 444.55 148.52 452.37 137.91 451.82Z" id="br64YZKjR"></path><path d="M80.99 166.95C70.38 166.39 62.2 157.66 62.73 147.46C63.27 137.27 72.31 129.44 82.92 130C93.53 130.55 101.71 139.28 101.18 149.48C100.64 159.68 91.6 167.5 80.99 166.95Z" id="fPN6yDDYT"></path></defs><g><g><g><g><g><use xlink:href="#j2rJKSawz7" opacity="1" fill-opacity="0" stroke="#000000" stroke-width="45" stroke-opacity="1"></use></g></g><g><g><use xlink:href="#aGnJWlJks" opacity="1" fill-opacity="0" stroke="#000000" stroke-width="45" stroke-opacity="1"></use></g></g><g><g><use xlink:href="#b2HhQOtcUR" opacity="1" fill-opacity="0" stroke="#000000" stroke-width="45" stroke-opacity="1"></use></g></g></g><g><use xlink:href="#d4vkqlPIXG" opacity="1" fill="#010002" fill-opacity="1"></use></g><g><use xlink:href="#duo1FrL" opacity="1" fill="#010002" fill-opacity="1"></use></g><g><use xlink:href="#br64YZKjR" opacity="1" fill="#010002" fill-opacity="1"></use></g><g><use xlink:href="#fPN6yDDYT" opacity="1" fill="#010002" fill-opacity="1"></use></g></g></g></svg>