<?xml version="1.0" encoding="UTF-8" standalone="no"?>
<!DOCTYPE svg PUBLIC "-//W3C//DTD SVG 1.1//EN" "http://www.w3.org/Graphics/SVG/1.1/DTD/svg11.dtd">
<svg version="1.1" xmlns="http://www.w3.org/2000/svg" xmlns:xlink="http://www.w3.org/1999/xlink" preserveAspectRatio="xMidYMid meet" viewBox="0 0 150 570" width="150" height="570"><defs><path d="M23.01 337.6L123.01 437.6L18.99 557.6" id="a1HZLQM2I3"></path><path d="M23.01 127.23L123.01 227.23L18.99 347.23" id="b2g38WBKPD"></path><path d="M123.25 10.6L18.75 135.6" id="b5YiOX8zZ"></path><path d="M50.25 422.1C39.63 422.1 31 430.39 31 440.6C31 450.81 39.63 459.1 50.25 459.1C60.87 459.1 69.5 450.81 69.5 440.6C69.5 430.39 60.87 422.1 50.25 422.1Z" id="cjvagOqTX"></path><path d="M90.25 96.1C79.63 96.1 71 104.39 71 114.6C71 124.81 79.63 133.1 90.25 133.1C100.87 133.1 109.5 124.81 109.5 114.6C109.5 104.39 100.87 96.1 90.25 96.1Z" id="a2wdi8Mimd"></path><path d="M50.25 12.1C39.63 12.1 31 20.39 31 30.6C31 40.81 39.63 49.1 50.25 49.1C60.87 49.1 69.5 40.81 69.5 30.6C69.5 20.39 60.87 12.1 50.25 12.1Z" id="aS3033F71"></path><path d="M50.25 208.1C39.63 208.1 31 216.39 31 226.6C31 236.81 39.63 245.1 50.25 245.1C60.87 245.1 69.5 236.81 69.5 226.6C69.5 216.39 60.87 208.1 50.25 208.1Z" id="a2INJPwzwe"></path><path d="M90.25 318.1C79.63 318.1 71 326.39 71 336.6C71 346.81 79.63 355.1 90.25 355.1C100.87 355.1 109.5 346.81 109.5 336.6C109.5 326.39 100.87 318.1 90.25 318.1Z" id="a3nqy29CrQ"></path></defs><g><g><g><g><g><g><use xlink:href="#a1HZLQM2I3" opacity="1" fill-opacity="0" stroke="#000000" stroke-width="18" stroke-opacity="1"></use></g></g><g><g><use xlink:href="#b2g38WBKPD" opacity="1" fill-opacity="0" stroke="#000000" stroke-width="18" stroke-opacity="1"></use></g></g><g><g><use xlink:href="#b5YiOX8zZ" opacity="1" fill-opacity="0" stroke="#000000" stroke-width="18" stroke-opacity="1"></use></g></g></g><g><g><use xlink:href="#cjvagOqTX" opacity="1" fill="#010002" fill-opacity="1"></use></g><g><use xlink:href="#a2wdi8Mimd" opacity="1" fill="#010002" fill-opacity="1"></use></g><g><use xlink:href="#aS3033F71" opacity="1" fill="#010002" fill-opacity="1"></use></g><g><use xlink:href="#a2INJPwzwe" opacity="1" fill="#010002" fill-opacity="1"></use></g><g><use xlink:href="#a3nqy29CrQ" opacity="1" fill="#010002" fill-opacity="1"></use></g></g></g></g></g></svg>